<svg width="34" height="34" viewBox="0 0 34 34" fill="none" xmlns="http://www.w3.org/2000/svg">
<path fill-rule="evenodd" clip-rule="evenodd" d="M8.54749 16.5781L12.8022 12.3102L8.56327 8.05811L0.0727539 16.5781H8.54749Z" fill="url(#paint0_linear_4103_894)"/>
<path fill-rule="evenodd" clip-rule="evenodd" d="M0.533203 6.08704V0.0759277H28.0138L33.9969 6.08704H0.533203Z" fill="url(#paint1_linear_4103_894)"/>
<path fill-rule="evenodd" clip-rule="evenodd" d="M28.0074 33.5357H33.9968V6.14714L28.0074 0.0727539V33.5357Z" fill="url(#paint2_linear_4103_894)"/>
<path fill-rule="evenodd" clip-rule="evenodd" d="M33.9969 33.5358L21.8383 21.3364L17.5994 25.5853L25.5253 33.5358H33.9969Z" fill="url(#paint3_linear_4103_894)"/>
<path fill-rule="evenodd" clip-rule="evenodd" d="M9.67651 33.5358L21.8351 21.3364L26.074 25.5853L18.1481 33.5358H9.67651Z" fill="url(#paint4_linear_4103_894)"/>
<path fill-rule="evenodd" clip-rule="evenodd" d="M0.533203 0L12.8022 12.307L8.56324 16.559L0.533203 8.50098V0Z" fill="url(#paint5_linear_4103_894)"/>
<defs>
<linearGradient id="paint0_linear_4103_894" x1="14.0543" y1="10.2" x2="-2.0658" y2="16.3707" gradientUnits="userSpaceOnUse">
<stop stop-color="#445DA7"/>
<stop offset="1" stop-color="#49B1E5"/>
</linearGradient>
<linearGradient id="paint1_linear_4103_894" x1="22986.4" y1="58.6242" x2="19086.5" y2="58.6242" gradientUnits="userSpaceOnUse">
<stop stop-color="#445DA7"/>
<stop offset="1" stop-color="#49B1E5"/>
</linearGradient>
<linearGradient id="paint2_linear_4103_894" x1="4053.96" y1="3724.5" x2="4053.96" y2="-169.919" gradientUnits="userSpaceOnUse">
<stop stop-color="#445DA7"/>
<stop offset="1" stop-color="#49B1E5"/>
</linearGradient>
<linearGradient id="paint3_linear_4103_894" x1="21.1224" y1="23.5542" x2="30.0634" y2="34.9643" gradientUnits="userSpaceOnUse">
<stop offset="0.01" stop-color="#445DA7"/>
<stop offset="1" stop-color="#49B1E5"/>
</linearGradient>
<linearGradient id="paint4_linear_4103_894" x1="10349.1" y1="1428.05" x2="10349.1" y2="730.365" gradientUnits="userSpaceOnUse">
<stop stop-color="#445DA7"/>
<stop offset="1" stop-color="#49B1E5"/>
</linearGradient>
<linearGradient id="paint5_linear_4103_894" x1="7087.46" y1="-133.797" x2="7641.49" y2="833.148" gradientUnits="userSpaceOnUse">
<stop stop-color="#445DA7"/>
<stop offset="1" stop-color="#49B1E5"/>
</linearGradient>
</defs>
</svg>
